<?xml version="1.0" encoding="utf-8"?>
<!-- Generator: Adobe Illustrator 15.0.0, SVG Export Plug-In . SVG Version: 6.00 Build 0)  -->
<!DOCTYPE svg PUBLIC "-//W3C//DTD SVG 1.0//EN" "http://www.w3.org/TR/2001/REC-SVG-20010904/DTD/svg10.dtd">
<svg version="1.0" id="Layer_1" xmlns="http://www.w3.org/2000/svg" xmlns:xlink="http://www.w3.org/1999/xlink" x="0px" y="0px"
	 width="595.279px" height="841.89px" viewBox="0 0 595.279 841.89" enable-background="new 0 0 595.279 841.89"
	 xml:space="preserve">
<path fill="none" stroke="#31C1D7" stroke-width="0.7271" stroke-miterlimit="10" d="M6.14,5.981c0,0,104.25,1.586,106.25,3.569
	c2,1.982-116.75-1.586-106.25,0.396c10.5,1.982,114.55,2.378,106.275,4.361c-8.275,1.983-111.775-1.586-105.025,0
	c6.75,1.586,108.986,1.322,105.493,2.512c-3.493,1.188-110.243-1.058-105.493,0c4.75,1.057,108.411,1.057,105.581,2.114
	c-2.831,1.057-108.831-1.189-105.956,0c2.875,1.189,108.525,0.925,106.013,2.445c-2.513,1.52-109.138-1.455-106.263,0"/>
<path fill="none" stroke="#31C1D7" stroke-width="0.7271" stroke-miterlimit="10" d="M6.14,21.824c0,0,104.25,1.586,106.25,3.569
	c2,1.982-116.75-1.586-106.25,0.396c10.5,1.982,114.55,2.379,106.275,4.361c-8.275,1.983-111.775-1.586-105.025,0
	c6.75,1.586,108.986,1.322,105.493,2.512c-3.493,1.188-110.243-1.058-105.493,0c4.75,1.057,108.411,1.057,105.581,2.114
	c-2.831,1.057-108.831-1.189-105.956,0s108.525,0.925,106.013,2.445c-2.513,1.52-109.138-1.455-106.263,0"/>
<path fill="none" stroke="#2DB34A" stroke-miterlimit="10" d="M5.89,37.413c10-3.176,32.836-7.059,48.251-7.639
	s59.415,5.107,59.749,7.639s-43.642-6.683-54.613-5.534s-60.554,7.315-51.054,7.399s45.747-4.364,51.667-4.772
	s55.249,3.939,54.416,5.606s-48.083-3.147-53.25-2.699s-58.583,3.532-49.25,3.615s42.5-1,49-1.333s47.584,1.667,51.167,2.25"/>
<path fill="none" stroke="#9B5011" stroke-width="0.7948" stroke-miterlimit="10" d="M51.172,33.795c0,0,0.752-12.288,1.502-12.351
	c0.75-0.062,2.33,11.312,1.264,11.438s-0.907-10.875-1.204-8.312s-1.242,8.407,0,7.812"/>
<path fill="none" stroke="#1F9F49" stroke-width="1.1285" stroke-miterlimit="10" d="M45.724,15.504
	c3.006-1.095,6.207-2.162,11.348-1.191c5.142,0.97-18.916,3.395-12.805,3.492c6.111,0.097,24.052-0.093,16.294,0.972
	c-7.757,1.065-18.718,0.801-14.838,1.563c3.88,0.762,14.76,0.859,10.775,1.635c-3.985,0.776-8.73,1.3-6.119,2.037
	c2.611,0.738,5.139-0.792,5.044,0"/>
<path fill="none" stroke="#FABF0E" stroke-width="1.1285" stroke-miterlimit="10" d="M15.223,10.07c0,0,0.958-4.272,3.917-2.5
	s0.75,3.583-0.458,3.75s-3.75-0.917-1.458-2.542s1.333,0.833,1.208,0.917s-0.833,0.167-0.833,0.167"/>
</svg>
